<svg version="1" xmlns="http://www.w3.org/2000/svg" width="400" height="400" viewBox="0 0 300.000000 300.000000"><path d="M251.7 4.2c.9 2.4 4.2 10.3 7.2 17.6l5.6 13.4-6.6 6.7c-12.6 12.8-17.5 29.5-13.5 46.4l1.4 5.8-7.7 4.5c-20.8 12.4-66.5 33.7-98.1 45.9l-14.5 5.5-1.8-2.2c-4.3-5.4-10.5-11.3-14.7-14-11.9-7.6-30.6-9-44.1-3.4-1.1.5-4.5-2.7-12.1-11.1C37.7 102.5 24 86.4 12.6 72 7.1 65.1 2.1 58.8 1.3 58 .2 56.8 0 59.3 0 73.3V90l11.7 13.7c6.4 7.6 16.9 19.7 23.4 26.8 10.9 12.2 11.6 13.2 10.2 15-4.9 6.5-9.3 18.7-9.3 25.7 0 4.2.6 3.9-11.5 5.8-3.8.6-10.9 1.8-15.7 2.7L0 181.3v26.6l2.8-.4c1.5-.3 9-1.6 16.7-2.9 7.7-1.4 16.3-2.8 19-3.1 4.9-.6 5.1-.5 7.5 3 3.3 4.7 11.3 10.8 18.2 14 14.9 6.8 33.1 5.2 45.9-4l5-3.6 2.8 2.3c1.5 1.3 8.8 7.5 16.2 13.9 12.3 10.6 35.5 29.5 50.6 41.1l6.2 4.7-1.1 3.8c-1.3 4.6-.6 18 1.1 21l1.2 2.3 36.7-.1c34.8 0 36.6-.1 34.3-1.7-5.8-4-5.9-4.2-6.4-14.4l-.4-9.8 11.1-6.9c6.1-3.8 15.8-9.6 21.6-12.9l10.5-6 .3-8.6c.1-4.7-.1-8.6-.5-8.6-1.5 0-24.3 13-38.3 21.7-8.3 5.2-13.9 8.1-14.6 7.6-6.1-4.6-10-6.5-15.8-7.9-7.6-1.9-15.6-1.1-22.7 2.4l-3.8 1.9-14.1-10.8c-25.2-19.4-61.5-50.3-61.5-52.3 0-.6.9-4.9 2-9.5 2.2-9.8-1.3-7.5 30.3-19.6 28.1-10.7 52.6-22.1 79.1-36.9l20.7-11.5 9 4.4c9.6 4.9 20.4 7.3 26.8 6.1l3.6-.7v-99l-7.7.2-7.6.2-5.6-13.6L273.5.1 261.8 0H250l1.7 4.2z"/></svg>